inDegrees=no
num_controls=7
num_derivatives=13
num_iterations=124
num_multipliers=7
num_parameters=0
num_slacks=7
num_states=26
objective=5.833273
objective_accelerations=0.324367
objective_balance=0.030588
objective_effort=0.394132
objective_height=4.974522
objective_ligament=0.109664
solver_duration=1100.670980
status=Solve_Succeeded
success=true
DataType=double
version=3
OpenSimVersion=4.4-2022-07-23-0e9fedc
endheader
time	/jointset/ground_pelvis/pelvis_tilt/value	/jointset/ground_pelvis/pelvis_tx/value	/jointset/ground_pelvis/pelvis_ty/value	/jointset/hip_r/hip_flexion_r/value	/jointset/hip_r/hip_adduction_r/value	/jointset/hip_r/hip_rotation_r/value	/jointset/back/lumbar_extension/value	/jointset/patellofemoral_r/patellar_flexion_r/value	/jointset/knee_r/knee_flexion_r/value	/jointset/knee_r/knee_adduction_r/value	/jointset/knee_r/knee_rotation_r/value	/jointset/ankle_r/ankle_angle_r/value	/jointset/subtalar_r/subtalar_angle_r/value	/jointset/ground_pelvis/pelvis_tilt/speed	/jointset/ground_pelvis/pelvis_tx/speed	/jointset/ground_pelvis/pelvis_ty/speed	/jointset/hip_r/hip_flexion_r/speed	/jointset/hip_r/hip_adduction_r/speed	/jointset/hip_r/hip_rotation_r/speed	/jointset/back/lumbar_extension/speed	/jointset/patellofemoral_r/patellar_flexion_r/speed	/jointset/knee_r/knee_flexion_r/speed	/jointset/knee_r/knee_adduction_r/speed	/jointset/knee_r/knee_rotation_r/speed	/jointset/ankle_r/ankle_angle_r/speed	/jointset/subtalar_r/subtalar_angle_r/speed	/forceset/tau_hip_flexion_r	/forceset/tau_hip_adduction_r	/forceset/tau_hip_rotation_r	/forceset/tau_knee_flexion_r	/forceset/tau_ankle_angle_r	/forceset/tau_subtalar_angle_r	/forceset/tau_lumbar_extension	lambda_cid13_p0	lambda_cid14_p0	lambda_cid14_p1	lambda_cid14_p2	lambda_cid14_p3	lambda_cid14_p4	lambda_cid14_p5	/jointset/ground_pelvis/pelvis_tilt/accel	/jointset/ground_pelvis/pelvis_tx/accel	/jointset/ground_pelvis/pelvis_ty/accel	/jointset/hip_r/hip_flexion_r/accel	/jointset/hip_r/hip_adduction_r/accel	/jointset/hip_r/hip_rotation_r/accel	/jointset/back/lumbar_extension/accel	/jointset/patellofemoral_r/patellar_flexion_r/accel	/jointset/knee_r/knee_flexion_r/accel	/jointset/knee_r/knee_adduction_r/accel	/jointset/knee_r/knee_rotation_r/accel	/jointset/ankle_r/ankle_angle_r/accel	/jointset/subtalar_r/subtalar_angle_r/accel	gamma_cid13_p0	gamma_cid14_p0	gamma_cid14_p1	gamma_cid14_p2	gamma_cid14_p3	gamma_cid14_p4	gamma_cid14_p5
0	-0.00651668262656272	0.09626120463419825	0.942724033336709	0.1762555651711513	-0.2321526585105868	-0.2616407206153831	-0.0385979564078546	0.07317816487769335	0.07317816487761825	0.1745328172128622	0.1745328618568038	0.0324735960626065	-0.003451752153878321	0	0	0	0	0	0	0	0	0	0	0	0	0	0.2164004911298983	-0.1180360028333108	-0.04618970626281663	-0.4154777677270362	0.4413705062960753	-0.1907646513306724	-0.1104340857790539	-39.07634593434368	90.4058440353427	-57.04597370448283	-1.837714461199624	-47.50881479984265	-682.572552187563	21.80598469615583	-0.8388697236249762	-0.4813909352966953	-0.3763753055174115	5.923448218753011	0.3946967791501512	1.92525336683649	-4.480509970795919	7.450738416858285	7.450738416858201	-2.802863850715203	0.1461105931487342	3.187040898584899	1.142912014369631	8.254874504797231e-08	5.827347543171483e-08	-5.136301726316465e-07	1.940435565944351e-07	2.102148426584318e-08	2.334588208813117e-08	-2.990066702222639e-07
0.01	-0.006554483179506079	0.09623836396207093	0.9427060641903852	0.1765408446434511	-0.2321319826841439	-0.2615371059638891	-0.03882264761759727	0.07354034241936516	0.07354034241927764	0.1743927555452485	0.1745299378076725	0.03263068297015131	-0.003394224601774946	-0.007552438034610547	-0.004465978005804654	-0.003586562406265955	0.05672609347565649	0.004062190148916419	0.02062083131015964	-0.04459631186563726	0.07213000890769382	0.0721300089076941	-0.02777080221767494	-0.0005639676832749828	0.03136864528303874	0.01141878168626718	0.2144125276863862	-0.1671738274163616	-0.04533454924611596	-0.4149853626193963	0.4313213256979169	-0.1444816197207835	-0.1083971133351953	-39.08827538480087	88.94743198862196	-37.44829933482044	-4.679200188786598	-48.43487658511766	-683.0778640378586	61.0969932105471	-0.7122737866736081	-0.4138735678554131	-0.3487020101940596	5.49772602413879	0.4009894612561462	2.115227027459899	-4.39790228107096	7.048290705736425	7.048290705736603	-2.728016668374294	-0.1544725118620649	3.104481066591167	1.128293131358884	1.139598450310902e-07	7.358367575611196e-08	-7.040908435666124e-07	2.272147021682472e-07	4.041828109971238e-08	-6.987403544927338e-08	-3.92509425932137e-07
0.02	-0.006667576701493228	0.0961739290429571	0.9426524483595993	0.1773834922729237	-0.232072883090513	-0.2612303371964425	-0.03948304404332464	0.07461465176567388	0.07461465176569322	0.1739822202033707	0.1745220096687674	0.03309999727520879	-0.003225122855688604	-0.01505859380098329	-0.008318849397300959	-0.007129336892398777	0.1114736314379738	0.007684753437567662	0.04063082319444006	-0.08714104319612705	0.1424263609358716	0.1424263609358762	-0.05409473487857901	-0.001000817878372525	0.06244547950319083	0.02231483879667833	0.212424564243091	-0.2163116519994049	-0.04447939222878868	-0.4144929575116338	0.4212721450998541	-0.09819858811087304	-0.1063601408912676	-39.12357410172124	87.55765827455598	-17.85596315675419	-7.5000085332711	-49.53247864275809	-682.5625735556972	100.1790539868733	-0.8296132699768116	-0.3587696124356966	-0.3676177214907671	5.527737116085401	0.3067714070971812	1.803085481659046	-4.070193863766132	7.08400704095548	7.084007040956203	-2.513489939361143	0.1715340907858343	3.128678686006871	1.038367099198349	1.45370945014208e-07	8.889387608050909e-08	-8.945515145015782e-07	2.603858477420593e-07	5.981507793358158e-08	-1.630939529866779e-07	-4.860121816420101e-07
0.03	-0.006855080268546927	0.09607259612330266	0.9425634521313275	0.1787652704861943	-0.2319796607538582	-0.2607287229444561	-0.04055930858760467	0.07638354391261216	0.07638354391261701	0.1733155720257622	0.1745123577047981	0.03387706622674506	-0.002949874861702993	-0.02236858538383511	-0.01198769665435716	-0.01067534647975489	0.1646574520437427	0.01089399572697957	0.05960085827141745	-0.1278609924629421	0.2110495824564954	0.2110495824565023	-0.07900006071594257	-0.0009477818414911401	0.09274738380985893	0.03261794407701332	0.2048942330514057	-0.1954147792961337	-0.04244204659687172	-0.4026077319053796	0.4062909167463809	-0.1100742419910476	-0.1007403709720094	-39.18147114466628	82.29489899543569	-23.90305263183972	-6.572463961108715	-45.2141690665596	-682.1445696237682	86.68480104785873	-0.670645333938982	-0.3769245608160998	-0.3489412304317369	5.180033696862128	0.318060484291649	1.930349437810017	-4.035264477635558	6.706077608086126	6.70607760808636	-2.443935923080621	-0.08046659854880893	2.947836618016088	1.008647830271945	1.593896902661233e-07	9.405352881796174e-08	-9.76247397573512e-07	2.503091208207001e-07	6.975903793755483e-08	-2.356725864426764e-07	-4.999951642997976e-07
0.04	-0.007113474397768887	0.09593337827538106	0.9424388260765716	0.1806721527382833	-0.2318563340254162	-0.2600401309582589	-0.04203524642845879	0.07882958785484818	0.07882958785485569	0.1724068941862738	0.1745027051093704	0.03495053228435391	-0.002575122697350462	-0.02923670622662427	-0.01589583505073201	-0.01425530218923811	0.2164944392111225	0.01370563179352978	0.07802637003209117	-0.1670757025095345	0.2778567199959491	0.2778567199959606	-0.1025006672395622	-0.001000944152111577	0.1217249007172962	0.04221567287017659	0.1973639018595864	-0.1745179065929111	-0.04040470096495784	-0.3907225062991628	0.3913096883928869	-0.1219498958712791	-0.09512060105285776	-39.26095987643972	77.09440243984885	-29.96662376881205	-5.61101271212824	-41.0482133373921	-680.767214415913	72.97188761566073	-0.7412391219637867	-0.4066278403000504	-0.3744069459161685	5.258370428407754	0.227250162524938	1.694180818397339	-3.769146019721356	6.72079024472177	6.72079024472296	-2.232546076612575	0.1502944212864396	2.863801206160074	0.8972918017639777	1.730498302658489e-07	9.900389191444647e-08	-1.055700707699816e-06	2.393406851881003e-07	7.950809408936525e-08	-3.078256264124604e-07	-5.123385640080574e-07
0.05	-0.007438922430697726	0.09575443181353505	0.942278092290303	0.1830908072740069	-0.2317070114332853	-0.2591714758335081	-0.04389530882503372	0.08193522420342064	0.08193522420341162	0.171270597022485	0.174493452639061	0.03630792191542676	-0.002107842165322557	-0.03580626775140943	-0.01987738743669344	-0.01790427640067127	0.2669779430474515	0.01610364386802996	0.0955922433907672	-0.2046683614188438	0.3429748487413147	0.3429748487413083	-0.1245354832060332	-0.0008605377984646392	0.1496043250893719	0.05115358254886369	0.1916926816374301	-0.169724784570604	-0.03874438917039229	-0.3838500642924707	0.3807083529759323	-0.1207219335882124	-0.09065370578907798	-39.36086951634835	73.78523379649904	-30.09326649670028	-5.498832097836052	-38.95885262170727	-680.0263006231572	71.48708395943154	-0.607797458326134	-0.3914924766692197	-0.3621280073213096	4.904577651699699	0.2376824788883392	1.770991103044236	-3.71406351764842	6.362934323160935	6.362934323157592	-2.155593342404547	-0.05565615530071465	2.727745362289521	0.8788726870186878	1.677470153678186e-07	9.269164265760822e-08	-1.017591956071912e-06	2.339497818453309e-07	8.167883247440971e-08	-3.546647221588621e-07	-5.069778835955784e-07
0.06	-0.007828662637026996	0.09553615512004293	0.9420804716922095	0.1860065443061582	-0.2315353875706107	-0.2581305218734808	-0.04612324534892855	0.08568316386619326	0.08568316386620078	0.169920622901879	0.1744852902527044	0.03793965225213106	-0.001553816109288564	-0.04209514089975955	-0.02376188137994993	-0.02163266455417608	0.3159109385019557	0.01816588590155667	0.1124861370870931	-0.2406505279725862	0.4063173828353707	0.4063173828353406	-0.1452360586021124	-0.00078292735298839	0.1765930418437739	0.05956477767145399	0.186021461415308	-0.1649316625483097	-0.03708407737578908	-0.3769776222857282	0.3701070175590012	-0.1194939713051541	-0.08618681052529989	-39.47977336833073	70.53321223172401	-30.22791896846087	-5.364795398974824	-37.01336496926866	-678.4235093606441	69.81767420820758	-0.6851014466763361	-0.3872161517596285	-0.3902897343304803	4.948268752042944	0.160096154330346	1.559784885926498	-3.447047548607745	6.365671314460094	6.365671314460104	-1.965697962534437	0.1377352396530997	2.685659682624745	0.7919488905446064	1.616457602635671e-07	8.590517814378794e-08	-9.745332228964624e-07	2.287937219673966e-07	8.353048379559032e-08	-4.004379676221741e-07	-5.008717682306472e-07
0.07000000000000001	-0.008280224179567463	0.09527943623087212	0.9418450503533952	0.1894044870271871	-0.2313448600195771	-0.2569256648193017	-0.04870281690413397	0.09005622537235017	0.09005622537235022	0.1683704658310976	0.1744792542824515	0.03983681009246105	-0.0009183191858984913	-0.04817426350871826	-0.02757259438078284	-0.02547058581061732	0.3634285156221443	0.01989627638846847	0.128376659319584	-0.2750116914919793	0.4679870998494482	0.4679870998494304	-0.1645879433306331	-0.0004549313095679522	0.2026776557512016	0.06745858817915212	0.1800485567882053	-0.1604915300672127	-0.0352697573067921	-0.3701450824696709	0.3587500858363977	-0.1171764705267528	-0.08149953834285664	-39.61619379620544	67.04159958221194	-29.9447863712845	-5.28200152810557	-34.81224419087672	-677.3615000280569	68.91967325650845	-0.562858519991162	-0.3765868361491976	-0.3834713539620451	4.616154326577593	0.1729171930064771	1.587451808507997	-3.392837016284958	6.021416858112322	6.021416858114203	-1.888943664889453	-0.02419622766646674	2.545766155874485	0.7765668576051106	1.468786493920606e-07	7.516430421466946e-08	-8.728241972591599e-07	2.167286679592099e-07	8.047146488754715e-08	-4.300578782689479e-07	-4.718262315709958e-07
